<svg xmlns="http://www.w3.org/2000/svg" xmlns:xlink="http://www.w3.org/1999/xlink" width="24" height="24" viewBox="0 0 24 24"><defs><clipPath id="a"><rect width="24" height="24" rx="5" fill="#fff"/></clipPath></defs><g clip-path="url(#a)"><path d="M11.891,16.552A1,1,0,0,1,11,18H1a1,1,0,0,1-.89-1.45l1-1.9A3,3,0,0,1,3.74,13H8.261a3,3,0,0,1,2.68,1.65ZM6,11A3,3,0,1,0,3,8a3,3,0,0,0,3,3Zm17.5-1H21V7.5a.5.5,0,0,0-.5-.5h-1a.5.5,0,0,0-.5.5V10H16.5a.5.5,0,0,0-.5.5v1a.5.5,0,0,0,.5.5H19v2.5a.5.5,0,0,0,.5.5h1a.5.5,0,0,0,.5-.5V12h2.5a.5.5,0,0,0,.5-.5v-1A.5.5,0,0,0,23.5,10ZM11,11a3,3,0,1,0-.9-5.861,5,5,0,0,1,0,5.721A3,3,0,0,0,11,11Zm4.941,3.65A3,3,0,0,0,13.262,13h-1a4.891,4.891,0,0,1,.48.76l.95,1.89a3,3,0,0,1,.13,2.35H16a1,1,0,0,0,.89-1.45Z" transform="translate(-0.003 0.499)" fill="#fff"/></g></svg>