<svg xmlns="http://www.w3.org/2000/svg" xmlns:xlink="http://www.w3.org/1999/xlink" width="24" height="24" viewBox="0 0 24 24"><defs><clipPath id="a"><rect width="24" height="24" transform="translate(16 10)" fill="#fff"/></clipPath></defs><g transform="translate(-16 -10)" clip-path="url(#a)"><path d="M12,6.667V25.333H6.667V6.667H12M13.333,4h-8A1.333,1.333,0,0,0,4,5.333V26.667A1.333,1.333,0,0,0,5.333,28h8a1.333,1.333,0,0,0,1.333-1.333V5.333A1.333,1.333,0,0,0,13.333,4Zm12,2.667V9.333H20V6.667h5.333M26.667,4h-8a1.333,1.333,0,0,0-1.333,1.333v5.333A1.333,1.333,0,0,0,18.667,12h8A1.333,1.333,0,0,0,28,10.667V5.333A1.333,1.333,0,0,0,26.667,4ZM25.333,17.333v8H20v-8h5.333m1.333-2.667h-8A1.333,1.333,0,0,0,17.333,16V26.667A1.333,1.333,0,0,0,18.667,28h8A1.333,1.333,0,0,0,28,26.667V16A1.333,1.333,0,0,0,26.667,14.667Z" transform="translate(12 6)" fill="#fff"/></g></svg>