<svg xmlns="http://www.w3.org/2000/svg" xmlns:xlink="http://www.w3.org/1999/xlink" width="24" height="24" viewBox="0 0 24 24"><defs><clipPath id="a"><rect width="24" height="24" rx="5" fill="#fff"/></clipPath></defs><g clip-path="url(#a)"><path d="M25.2,4.8H18a4.8,4.8,0,0,0-3.6,1.644A4.8,4.8,0,0,0,10.8,4.8H3.6A1.2,1.2,0,0,0,2.4,6V21.6a1.2,1.2,0,0,0,1.2,1.2h6.708a1.2,1.2,0,0,1,.84.348l.5.5a1.2,1.2,0,0,0,.84.348h3.816a1.2,1.2,0,0,0,.84-.348l.5-.5a1.2,1.2,0,0,1,.84-.348H25.2a1.2,1.2,0,0,0,1.2-1.2V6A1.2,1.2,0,0,0,25.2,4.8Zm-12,15.048a4.8,4.8,0,0,0-2.4-.648h-6V7.2h6a2.4,2.4,0,0,1,2.4,2.4ZM24,19.2H18a4.8,4.8,0,0,0-2.4.648V9.6A2.4,2.4,0,0,1,18,7.2h6Z" transform="translate(-2.4 -2.4)" fill="#fff"/></g></svg>