<svg xmlns="http://www.w3.org/2000/svg" xmlns:xlink="http://www.w3.org/1999/xlink" width="24" height="24" viewBox="0 0 24 24"><defs><clipPath id="a"><rect width="24" height="24" transform="translate(57 69)" fill="#7d8a8b"/></clipPath></defs><g transform="translate(-57 -69)" clip-path="url(#a)"><g transform="translate(57 69)"><circle cx="3.2" cy="3.2" r="3.2" transform="translate(8.8 8.8)" fill="#7d8a8b"/><path d="M8.333,1.333l-1.83,2H3.333a2,2,0,0,0-2,2v12a2,2,0,0,0,2,2h16a2,2,0,0,0,2-2v-12a2,2,0,0,0-2-2h-3.17l-1.83-2Zm3,15a5,5,0,1,1,5-5A5,5,0,0,1,11.333,16.333Z" transform="translate(0.667 0.667)" fill="#7d8a8b"/><path d="M0,0H24V24H0Z" fill="none"/></g></g></svg>