<svg xmlns="http://www.w3.org/2000/svg" xmlns:xlink="http://www.w3.org/1999/xlink" width="24" height="24" viewBox="0 0 24 24"><defs><clipPath id="a"><rect width="24" height="24" rx="5" fill="#fff"/></clipPath></defs><g clip-path="url(#a)"><path d="M24,4.8H4.8A2.4,2.4,0,0,0,2.4,7.2V21.6A2.4,2.4,0,0,0,4.8,24H24a2.4,2.4,0,0,0,2.4-2.4V7.2A2.4,2.4,0,0,0,24,4.8Zm0,16.8H4.8V9.6H24ZM7.8,19.2h4.8a.6.6,0,0,0,.6-.6v-6a.6.6,0,0,0-.6-.6H7.8a.6.6,0,0,0-.6.6v6A.6.6,0,0,0,7.8,19.2Zm8.4-4.8H21a.6.6,0,0,0,.6-.6V12.6A.6.6,0,0,0,21,12H16.2a.6.6,0,0,0-.6.6v1.2A.6.6,0,0,0,16.2,14.4Zm0,4.8h2.4a.6.6,0,0,0,.6-.6V17.4a.6.6,0,0,0-.6-.6H16.2a.6.6,0,0,0-.6.6v1.2A.6.6,0,0,0,16.2,19.2Z" transform="translate(-2.4 -2.4)" fill="#fff"/></g></svg>