<svg xmlns="http://www.w3.org/2000/svg" xmlns:xlink="http://www.w3.org/1999/xlink" width="24" height="24" viewBox="0 0 24 24"><defs><clipPath id="a"><rect width="24" height="24" rx="5" fill="#fff"/></clipPath></defs><g clip-path="url(#a)"><path d="M15.684,12.668V3.161A.555.555,0,0,1,15.9,2.7a.543.543,0,0,1,.483-.133,12.065,12.065,0,0,1,10,10,.543.543,0,0,1-.133.483.555.555,0,0,1-.458.217H16.287A.6.6,0,0,1,15.684,12.668Zm10.11,3.016H16.287a.6.6,0,0,0-.6.6v9.507a.555.555,0,0,0,.217.458.543.543,0,0,0,.483.133,12.065,12.065,0,0,0,10-10,.543.543,0,0,0-.133-.483.555.555,0,0,0-.458-.217ZM12.523,2.57a12.065,12.065,0,0,0,0,23.816.543.543,0,0,0,.483-.133.555.555,0,0,0,.217-.458V3.161a.555.555,0,0,0-.217-.458.543.543,0,0,0-.434-.133Z" transform="translate(-2.398 -2.478)" fill="#fff"/></g></svg>