<svg xmlns="http://www.w3.org/2000/svg" xmlns:xlink="http://www.w3.org/1999/xlink" width="18" height="18" viewBox="0 0 18 18"><defs><clipPath id="a"><rect width="18" height="18" transform="translate(39.651 13)" fill="#7d8a8b"/></clipPath></defs><g transform="translate(-39.651 -13)" clip-path="url(#a)"><path d="M9.137,8.5a.432.432,0,0,1,.63,0l2.386,2.386L18.4,4.636a.45.45,0,0,1,.639,0l.63.63a.45.45,0,0,1,0,.639l-7.2,7.2a.432.432,0,0,1-.63,0L9.452,10.721,3.2,16.969a.45.45,0,0,1-.639,0l-.63-.63a.45.45,0,0,1,0-.639Z" transform="translate(37.849 11.198)" fill="#7d8a8b"/></g></svg>