<svg xmlns="http://www.w3.org/2000/svg" width="24" height="21" viewBox="0 0 24 21"><path d="M4,8a2,2,0,0,0-2,2V22a2,2,0,0,0,2,2H16a5,5,0,0,0,10,0,4.962,4.962,0,0,0-1.035-3.028c.011.01.024.018.035.028V10a2,2,0,0,0-2-2Zm5.469,3.5a1.147,1.147,0,0,1,1.006.5c1.365,0,1.011,1.9.8,2.527a.878.878,0,0,1,.171.572.858.858,0,0,1-.386.651A1.524,1.524,0,0,1,10.4,16.8a9.08,9.08,0,0,0,0,.934c.389,1.044,2.979.75,3.1,2.764h-8c.121-2.014,2.712-1.72,3.1-2.765a9.061,9.061,0,0,0,0-.933,1.714,1.714,0,0,1-.685-1.057.807.807,0,0,1-.387-.725.738.738,0,0,1,.194-.5C7.341,13.057,7.507,11.536,9.469,11.5ZM15.5,13h6a.5.5,0,0,1,0,1h-6a.5.5,0,0,1,0-1Zm0,2.5h6a.5.5,0,0,1,0,1h-6a.5.5,0,0,1,0-1Zm0,2.5h6a.5.5,0,0,1,0,1h-6a.5.5,0,0,1,0-1ZM21,20a4,4,0,1,1-4,4A4.012,4.012,0,0,1,21,20Zm2.15,1.7-2.7,3.149L18.8,23.6l-.6.8,2.35,1.8L23.9,22.35Z" transform="translate(-2 -8)" fill="#255eaa"/></svg>