<svg xmlns="http://www.w3.org/2000/svg" width="14.996" height="14" viewBox="0 0 14.996 14"><g transform="translate(0 -0.164)"><path d="M.25,14a.252.252,0,0,1-.223-.136.24.24,0,0,1,.047-.283,5.677,5.677,0,0,0,1.118-3.363A6.065,6.065,0,0,1,0,6.632C0,2.975,3.364,0,7.5,0S15,2.975,15,6.632s-3.363,6.631-7.5,6.631a8.263,8.263,0,0,1-3.06-.577A13.427,13.427,0,0,1,.286,14,.187.187,0,0,1,.25,14ZM11,5.649a.983.983,0,1,0,1,.983A.992.992,0,0,0,11,5.649Zm-3.5,0a.983.983,0,1,0,1,.983A.992.992,0,0,0,7.5,5.649Zm-3.5,0a.983.983,0,1,0,1,.983A.993.993,0,0,0,4,5.649Z" transform="translate(0 0.164)" fill="#255eaa"/></g></svg>