<svg xmlns="http://www.w3.org/2000/svg" xmlns:xlink="http://www.w3.org/1999/xlink" width="24" height="24" viewBox="0 0 24 24"><defs><clipPath id="a"><rect width="24" height="24" rx="5" fill="#fff"/></clipPath></defs><g clip-path="url(#a)"><path d="M16.379,17.47A4.368,4.368,0,0,0,20.746,13.1V6.551a4.368,4.368,0,0,0-4.368-4.368H5.46A4.368,4.368,0,0,0,1.092,6.551V20.2a.546.546,0,0,0,.546.546.535.535,0,0,0,.382-.164L4.2,18.4a3.276,3.276,0,0,1,2.348-.928ZM22.93,6.551v8.735a4.368,4.368,0,0,1-4.368,4.368H5.46a2.184,2.184,0,0,0,2.184,2.184H19.654a3.276,3.276,0,0,1,2.326.961l2.184,2.184a.535.535,0,0,0,.382.164.546.546,0,0,0,.546-.546V8.735A2.184,2.184,0,0,0,22.93,6.551Z" transform="translate(-1.092 -1.665)" fill="#fff"/></g></svg>