<svg xmlns="http://www.w3.org/2000/svg" width="25.707" height="24" viewBox="0 0 25.707 24"><path d="M.429,24a.431.431,0,0,1-.383-.234.411.411,0,0,1,.081-.485c.983-.967,1.663-3.014,1.917-5.764A10.4,10.4,0,0,1,0,11.369C0,5.1,5.766,0,12.854,0S25.707,5.1,25.707,11.369,19.941,22.737,12.854,22.737a14.165,14.165,0,0,1-5.245-.989A23.019,23.019,0,0,1,.49,24,.32.32,0,0,1,.429,24ZM18.852,9.685a1.685,1.685,0,1,0,1.714,1.684A1.7,1.7,0,0,0,18.852,9.685Zm-6,0a1.685,1.685,0,1,0,1.714,1.684A1.7,1.7,0,0,0,12.854,9.685Zm-6,0a1.685,1.685,0,1,0,1.713,1.684A1.7,1.7,0,0,0,6.856,9.685Z" transform="translate(0)" fill="#7d8a8b"/></svg>