<svg xmlns="http://www.w3.org/2000/svg" xmlns:xlink="http://www.w3.org/1999/xlink" width="24" height="24" viewBox="0 0 24 24"><defs><clipPath id="a"><rect width="24" height="24" rx="5" fill="#fff"/></clipPath></defs><g clip-path="url(#a)"><path d="M26.4,7.2A2.4,2.4,0,0,0,24,4.8H4.8A2.4,2.4,0,0,0,2.4,7.2V21.6A2.4,2.4,0,0,0,4.8,24H24a2.4,2.4,0,0,0,2.4-2.4ZM12,19.8a.6.6,0,0,1-.6.6H7.8a.6.6,0,0,1-.6-.6V18.6a.6.6,0,0,1,.6-.6h3.6a.6.6,0,0,1,.6.6Zm12-6a.6.6,0,0,1-.6.6H5.4a.6.6,0,0,1-.6-.6V11.4a.6.6,0,0,1,.6-.6h18a.6.6,0,0,1,.6.6Z" transform="translate(-2.4 -2.4)" fill="#fff"/></g></svg>