<svg xmlns="http://www.w3.org/2000/svg" xmlns:xlink="http://www.w3.org/1999/xlink" width="16" height="16" viewBox="0 0 16 16"><defs><clipPath id="a"><rect width="16" height="16" fill="#7d8a8b" opacity="0.3"/></clipPath></defs><g clip-path="url(#a)"><path d="M17.589,9.354h0A8.515,8.515,0,0,0,9.594,4,8.515,8.515,0,0,0,1.647,9.33h0a.8.8,0,0,0-.048.264.648.648,0,0,0,.048.248h0a8.583,8.583,0,0,0,15.894.016h0a.648.648,0,0,0,.048-.264h0a.743.743,0,0,0,0-.24Zm-8,4.237a7.052,7.052,0,0,1-6.34-4,7.028,7.028,0,0,1,12.68,0A7.052,7.052,0,0,1,9.594,13.592Zm0-6.4a2.4,2.4,0,1,0,2.4,2.4A2.4,2.4,0,0,0,9.594,7.2Z" transform="translate(-1.599 -1.594)" fill="#7d8a8b"/></g></svg>