<svg xmlns="http://www.w3.org/2000/svg" xmlns:xlink="http://www.w3.org/1999/xlink" width="24" height="24" viewBox="0 0 24 24"><defs><clipPath id="a"><rect width="24" height="24" fill="#fff"/></clipPath></defs><g clip-path="url(#a)"><path d="M25.8,7.2H24.6a.6.6,0,0,0-.6.6V20.4a1.2,1.2,0,0,1-2.4,0V7.2a2.4,2.4,0,0,0-2.4-2.4H4.8A2.4,2.4,0,0,0,2.4,7.2V20.4A3.6,3.6,0,0,0,6,24H22.8a3.6,3.6,0,0,0,3.6-3.6V7.8A.6.6,0,0,0,25.8,7.2ZM18,18.6a.6.6,0,0,1-.6.6H6.6a.6.6,0,0,1-.6-.6V17.4a.6.6,0,0,1,.6-.6H17.4a.6.6,0,0,1,.6.6Zm0-4.8a.6.6,0,0,1-.6.6H6.6a.6.6,0,0,1-.6-.6V10.2a.6.6,0,0,1,.6-.6H17.4a.6.6,0,0,1,.6.6Z" transform="translate(-2.4 -2.4)" fill="#fff"/></g></svg>