<svg xmlns="http://www.w3.org/2000/svg" xmlns:xlink="http://www.w3.org/1999/xlink" width="18" height="18" viewBox="0 0 18 18"><defs><clipPath id="a"><rect width="18" height="18" transform="translate(39.651 10)" fill="#7d8a8b"/></clipPath></defs><g transform="translate(-39.651 -10)" clip-path="url(#a)"><path d="M10.5,16.125v6.75A1.125,1.125,0,0,1,9.375,24H7.125A1.125,1.125,0,0,1,6,22.875v-6.75A1.125,1.125,0,0,1,7.125,15h2.25A1.125,1.125,0,0,1,10.5,16.125ZM16.125,6h-2.25A1.125,1.125,0,0,0,12.75,7.125v15.75A1.125,1.125,0,0,0,13.875,24h2.25a1.125,1.125,0,0,0,1.125-1.125V7.125A1.125,1.125,0,0,0,16.125,6Zm6.75,4.5h-2.25A1.125,1.125,0,0,0,19.5,11.625v11.25A1.125,1.125,0,0,0,20.625,24h2.25A1.125,1.125,0,0,0,24,22.875V11.625A1.125,1.125,0,0,0,22.875,10.5Z" transform="translate(33.651 4)" fill="#7d8a8b"/></g></svg>