<svg xmlns="http://www.w3.org/2000/svg" xmlns:xlink="http://www.w3.org/1999/xlink" width="18" height="18" viewBox="0 0 18 18"><defs><clipPath id="a"><rect width="18" height="18" rx="5" fill="#7d8a8b"/></clipPath></defs><g clip-path="url(#a)"><path d="M12.362,10.14V3.01a.416.416,0,0,1,.163-.344.407.407,0,0,1,.362-.1,9.049,9.049,0,0,1,7.5,7.5.407.407,0,0,1-.1.362.416.416,0,0,1-.344.163h-7.13A.452.452,0,0,1,12.362,10.14ZM19.945,12.4h-7.13a.452.452,0,0,0-.452.452v7.13a.416.416,0,0,0,.163.344.407.407,0,0,0,.362.1,9.049,9.049,0,0,0,7.5-7.5.407.407,0,0,0-.1-.362.416.416,0,0,0-.344-.163ZM9.992,2.567a9.049,9.049,0,0,0,0,17.862.407.407,0,0,0,.362-.1.416.416,0,0,0,.163-.344V3.01a.416.416,0,0,0-.163-.344.407.407,0,0,0-.326-.1Z" transform="translate(-2.398 -2.498)" fill="#7d8a8b"/></g></svg>