<svg xmlns="http://www.w3.org/2000/svg" width="22.759" height="24" viewBox="0 0 22.759 24"><g transform="translate(-0.17)"><path d="M1.7,0a1.7,1.7,0,1,0,1.7,1.7A1.7,1.7,0,0,0,1.7,0Z" transform="translate(1.188 18.911)" fill="#7d8a8b"/><path d="M6.621,24H0V8.276H6.621V9.1h.414c.118,0,2.9-.071,2.9-6.207C9.931.376,11.039,0,11.7,0h.1c1.39,0,2.668,1.616,2.882,3.061a14.4,14.4,0,0,1-.048,4.631l-.3,1.412h5.945a2.069,2.069,0,0,1,1.36,3.628,1.753,1.753,0,0,1,1.123,1.751,2.071,2.071,0,0,1-1.684,2.034,2.067,2.067,0,0,1-1.241,3.309,2.068,2.068,0,0,1-1.627,3.347H6.621V24ZM.828,9.1V23.172H5.793V9.1Z" transform="translate(0.17 0)" fill="#7d8a8b"/></g></svg>