<svg xmlns="http://www.w3.org/2000/svg" width="15.172" height="16" viewBox="0 0 15.172 16"><g transform="translate(-0.17)"><path d="M1.7,0a1.7,1.7,0,1,0,1.7,1.7A1.7,1.7,0,0,0,1.7,0Z" transform="translate(1.188 10.911)" fill="#255eaa"/><path d="M4.414,16H0V5.517H4.414v.552H4.69c.079,0,1.931-.047,1.931-4.138C6.621.251,7.36,0,7.8,0h.066c.927,0,1.779,1.077,1.922,2.041a9.6,9.6,0,0,1-.032,3.087l-.2.941h3.963a1.379,1.379,0,0,1,.907,2.418,1.168,1.168,0,0,1,.749,1.167,1.38,1.38,0,0,1-1.123,1.356,1.378,1.378,0,0,1-.828,2.206,1.379,1.379,0,0,1-1.084,2.231H4.414V16ZM.552,6.069v9.379h3.31V6.069Z" transform="translate(0.17 0)" fill="#255eaa"/></g></svg>