<svg xmlns="http://www.w3.org/2000/svg" xmlns:xlink="http://www.w3.org/1999/xlink" width="24" height="24" viewBox="0 0 24 24"><defs><clipPath id="a"><rect width="24" height="24" fill="#fff"/></clipPath></defs><g clip-path="url(#a)"><path d="M27.994,13.957a.68.68,0,0,1-.173.493.693.693,0,0,1-.493.213H25.994a.667.667,0,0,1-.667-.64,8,8,0,0,0-7.372-7.358.667.667,0,0,1-.627-.627V4.706a.693.693,0,0,1,.213-.493A.68.68,0,0,1,18.036,4a10.664,10.664,0,0,1,9.958,9.958Zm-3.359,3.373H23.3a.667.667,0,0,0-.667.64A8,8,0,1,1,14.05,9.331a.667.667,0,0,0,.613-.667V7.332a.667.667,0,0,0-.693-.667A10.664,10.664,0,1,0,25.3,18a.667.667,0,0,0-.667-.667Z" transform="translate(-3.995 -3.985)" fill="#fff"/></g></svg>