<svg xmlns="http://www.w3.org/2000/svg" xmlns:xlink="http://www.w3.org/1999/xlink" width="16" height="16" viewBox="0 0 16 16"><defs><clipPath id="a"><rect width="16" height="16" fill="#fff" stroke="#fff" stroke-width="1"/></clipPath></defs><g clip-path="url(#a)"><g transform="translate(0.235 2.5)"><path d="M13.507,7.46A1.149,1.149,0,0,0,12.7,5.5H7.2a2,2,0,0,0-1.414.586L.337,11.54a1.148,1.148,0,0,0,.812,1.96h5.49a2,2,0,0,0,1.414-.586Zm-4.243.128a1.168,1.168,0,0,1-.3,1.271.5.5,0,1,1-.771-.638.1.1,0,0,0-.091-.16,2.451,2.451,0,0,0-1.327.765.114.114,0,0,0-.017.114.112.112,0,0,0,.091.071.97.97,0,0,1,.8.527,1.168,1.168,0,0,1-.3,1.273,3.386,3.386,0,0,1-1.975,1.117.168.168,0,0,0-.1.059l-.361.437a.5.5,0,1,1-.746-.667.167.167,0,0,0,.006-.205.764.764,0,0,1-.081-.133,1.168,1.168,0,0,1,.3-1.274.5.5,0,1,1,.772.635.1.1,0,0,0,.091.159,2.41,2.41,0,0,0,1.331-.763.114.114,0,0,0-.075-.186.955.955,0,0,1-.8-.526A1.165,1.165,0,0,1,6,8.189,3.333,3.333,0,0,1,8.137,7.056.169.169,0,0,0,8.254,7L8.6,6.577a.5.5,0,1,1,.771.638l-.115.139a.165.165,0,0,0-.013.195c.007.013.014.026.023.04Z" transform="translate(0 -2.5)" fill="#fff"/><path d="M16,3.833A1.333,1.333,0,0,0,14.667,2.5H1.333A1.333,1.333,0,0,0,0,3.833v4A1.333,1.333,0,0,0,1.333,9.167a.667.667,0,0,0,.133-1.32.167.167,0,0,1-.133-.163V4.5A.667.667,0,0,1,2,3.833H14a.667.667,0,0,1,.667.667V7.833h0a.667.667,0,1,0,0,1.333A1.333,1.333,0,0,0,16,7.833Z" transform="translate(0 -2.5)" fill="#fff"/></g></g></svg>