<svg xmlns="http://www.w3.org/2000/svg" xmlns:xlink="http://www.w3.org/1999/xlink" width="24" height="24" viewBox="0 0 24 24"><defs><clipPath id="a"><rect width="24" height="24" transform="translate(294 480.512)" fill="#7d8a8b"/></clipPath></defs><g transform="translate(-294 -480.512)" clip-path="url(#a)"><g transform="translate(294 480.509)"><path d="M21.428,6.967a.247.247,0,0,0,.073-.176V1.506A1.5,1.5,0,0,0,20,.006H1.5A1.5,1.5,0,0,0,0,1.506V13.558a1.459,1.459,0,0,0,1.5,1.448H3v3.5a.5.5,0,0,0,.832.373L8.19,15.006h5.1a.25.25,0,0,0,.177-.074Z" fill="#7d8a8b"/><path d="M11.6,23.985l3.143-.629a.25.25,0,0,0,.128-.422l-2.809-2.808a.249.249,0,0,0-.249-.062.253.253,0,0,0-.173.19L11.011,23.4a.5.5,0,0,0,.588.588Z" fill="#7d8a8b"/><path d="M23.227,11.76a2.62,2.62,0,0,0-3.7,0l-6.679,6.68a.25.25,0,0,0,0,.353L16.2,22.147a.25.25,0,0,0,.353,0l6.679-6.68a2.621,2.621,0,0,0-.005-3.707Z" fill="#7d8a8b"/></g></g></svg>