<svg xmlns="http://www.w3.org/2000/svg" xmlns:xlink="http://www.w3.org/1999/xlink" width="24" height="24" viewBox="0 0 24 24"><defs><clipPath id="a"><rect width="24" height="24" transform="translate(22.651 22.512)" fill="#7d8a8b"/></clipPath></defs><g transform="translate(-22.651 -22.512)" clip-path="url(#a)"><path d="M4.8,24a2.4,2.4,0,0,0,2.4,2.4H21.6A2.4,2.4,0,0,0,24,24V4.8a2.4,2.4,0,0,0-2.4-2.4H13a2.4,2.4,0,0,0-1.7.708L5.508,8.892A2.4,2.4,0,0,0,4.8,10.6Zm10.8-3a.6.6,0,0,1-.6.6H9a.6.6,0,0,1-.6-.6V19.8a.6.6,0,0,1,.6-.6h6a.6.6,0,0,1,.6.6Zm4.8-4.8a.6.6,0,0,1-.6.6H9a.6.6,0,0,1-.6-.6V15a.6.6,0,0,1,.6-.6H19.8a.6.6,0,0,1,.6.6ZM6.984,10.8,13.2,4.584V9.6A1.2,1.2,0,0,1,12,10.8Z" transform="translate(20.251 20.112)" fill="#7d8a8b"/></g></svg>