<svg xmlns="http://www.w3.org/2000/svg" xmlns:xlink="http://www.w3.org/1999/xlink" width="24" height="24" viewBox="0 0 24 24"><defs><clipPath id="a"><rect width="24" height="24" transform="translate(22.651 22.512)" fill="#7d8a8b"/></clipPath></defs><g transform="translate(-22.651 -22.512)" clip-path="url(#a)"><path d="M24,4.8H4.8A2.4,2.4,0,0,0,2.4,7.2V21.6A2.4,2.4,0,0,0,4.8,24H24a2.4,2.4,0,0,0,2.4-2.4V7.2A2.4,2.4,0,0,0,24,4.8ZM18.072,15.144,13.4,18.264A.9.9,0,0,1,12,17.52V11.28a.9.9,0,0,1,1.4-.744l4.668,3.12a.888.888,0,0,1,0,1.488Z" transform="translate(20.251 20.112)" fill="#7d8a8b"/></g></svg>