<svg xmlns="http://www.w3.org/2000/svg" xmlns:xlink="http://www.w3.org/1999/xlink" width="24" height="24" viewBox="0 0 24 24"><defs><clipPath id="a"><rect width="24" height="24" transform="translate(-2 -2)" fill="#7d8a8b"/></clipPath></defs><g transform="translate(2 2)"><g clip-path="url(#a)"><g transform="translate(-2 -2)"><path d="M0,0H24V24H0Z" fill="none"/><path d="M18,16.085a2.9,2.9,0,0,0-1.965.77L8.91,12.7a2.767,2.767,0,0,0,0-1.4l7.05-4.115a3.066,3.066,0,1,0-.87-1.49L8.04,9.81a3,3,0,1,0,0,4.38l7.125,4.155a2.83,2.83,0,0,0-.08.655A2.915,2.915,0,1,0,18,16.085Z" fill="#7d8a8b"/></g></g></g></svg>