<svg xmlns="http://www.w3.org/2000/svg" xmlns:xlink="http://www.w3.org/1999/xlink" width="24" height="24" viewBox="0 0 24 24"><defs><clipPath id="a"><rect width="24" height="24" fill="#7d8a8b" stroke="#fff" stroke-width="1"/></clipPath></defs><g clip-path="url(#a)"><path d="M13.6,1.6a12,12,0,1,0,12,12A12,12,0,0,0,13.6,1.6Zm0,3.6A3.6,3.6,0,1,1,10,8.8a3.6,3.6,0,0,1,3.6-3.6Zm6.744,13.392a8.4,8.4,0,0,1-13.488,0,1.2,1.2,0,0,1-.084-1.2l.252-.528A3.6,3.6,0,0,1,10.276,14.8h6.648a3.6,3.6,0,0,1,3.228,2.016l.276.564a1.2,1.2,0,0,1-.084,1.212Z" transform="translate(-1.6 -1.6)" fill="#7d8a8b"/></g></svg>